<mxfile host="65bd71144e">
    <diagram id="ACaII0qKWcso8vS4ioJ5" name="Page-1">
        <mxGraphModel dx="949" dy="606" grid="1" gridSize="10" guides="1" tooltips="1" connect="1" arrows="1" fold="1" page="1" pageScale="1" pageWidth="827" pageHeight="1169" math="0" shadow="0">
            <root>
                <mxCell id="0"/>
                <mxCell id="1" parent="0"/>
                <mxCell id="29" value="Isolate failed nodes as root." style="whiteSpace=wrap;html=1;rounded=1;fillColor=#6a00ff;fontColor=#ffffff;strokeColor=#FFFFFF;" parent="1" vertex="1">
                    <mxGeometry x="389" y="190" width="120" height="60" as="geometry"/>
                </mxCell>
                <mxCell id="20" value="create case with service API" style="whiteSpace=wrap;html=1;rounded=1;fillColor=#6a00ff;fontColor=#ffffff;strokeColor=#FFFFFF;" parent="1" vertex="1">
                    <mxGeometry x="78" y="190" width="120" height="60" as="geometry"/>
                </mxCell>
                <mxCell id="21" value="run diagnostics&lt;br&gt;upload to S3&lt;br&gt;make presigned url" style="whiteSpace=wrap;html=1;rounded=1;fillColor=#6a00ff;fontColor=#ffffff;strokeColor=#FFFFFF;" parent="1" vertex="1">
                    <mxGeometry x="234" y="190" width="120" height="60" as="geometry"/>
                </mxCell>
                <mxCell id="25" value="" style="edgeStyle=none;html=1;" parent="1" source="2" target="22" edge="1">
                    <mxGeometry relative="1" as="geometry"/>
                </mxCell>
                <mxCell id="2" value="SBATCH job submission&lt;br&gt;sbatch --exclude ..." style="rounded=1;whiteSpace=wrap;html=1;fillColor=#008a00;fontColor=#ffffff;strokeColor=#FFFFFF;" parent="1" vertex="1">
                    <mxGeometry x="68" y="340" width="120" height="60" as="geometry"/>
                </mxCell>
                <mxCell id="24" value="" style="edgeStyle=none;html=1;" parent="1" source="3" target="5" edge="1">
                    <mxGeometry relative="1" as="geometry"/>
                </mxCell>
                <mxCell id="3" value="Run perf tests&lt;br&gt;(rom + cw)" style="rounded=1;whiteSpace=wrap;html=1;fillColor=#1ba1e2;fontColor=#ffffff;strokeColor=#FFFFFF;" parent="1" vertex="1">
                    <mxGeometry x="339" y="340" width="120" height="60" as="geometry"/>
                </mxCell>
                <mxCell id="8" value="" style="edgeStyle=none;html=1;entryX=1;entryY=0.5;entryDx=0;entryDy=0;" parent="1" source="5" target="7" edge="1">
                    <mxGeometry relative="1" as="geometry">
                        <Array as="points">
                            <mxPoint x="528" y="210"/>
                        </Array>
                    </mxGeometry>
                </mxCell>
                <mxCell id="9" value="YES" style="edgeLabel;html=1;align=center;verticalAlign=middle;resizable=0;points=[];" parent="8" vertex="1" connectable="0">
                    <mxGeometry x="-0.3333" y="-2" relative="1" as="geometry">
                        <mxPoint x="15" y="30" as="offset"/>
                    </mxGeometry>
                </mxCell>
                <mxCell id="16" value="NO" style="edgeStyle=none;html=1;" parent="1" source="5" target="15" edge="1">
                    <mxGeometry x="0.0492" y="20" relative="1" as="geometry">
                        <mxPoint as="offset"/>
                    </mxGeometry>
                </mxCell>
                <mxCell id="11" value="" style="edgeStyle=none;html=1;" parent="1" source="7" target="10" edge="1">
                    <mxGeometry relative="1" as="geometry"/>
                </mxCell>
                <mxCell id="7" value="Isolate failed nodes as root - sbatch --nodelist $host." style="whiteSpace=wrap;html=1;rounded=1;fillColor=#6a00ff;fontColor=#ffffff;strokeColor=#FFFFFF;" parent="1" vertex="1">
                    <mxGeometry x="379" y="180" width="120" height="60" as="geometry"/>
                </mxCell>
                <mxCell id="13" value="" style="edgeStyle=none;html=1;" parent="1" source="10" target="12" edge="1">
                    <mxGeometry relative="1" as="geometry"/>
                </mxCell>
                <mxCell id="10" value="run diagnostics&lt;br&gt;upload to S3&lt;br&gt;make presigned url" style="whiteSpace=wrap;html=1;rounded=1;fillColor=#6a00ff;fontColor=#ffffff;strokeColor=#FFFFFF;" parent="1" vertex="1">
                    <mxGeometry x="224" y="180" width="120" height="60" as="geometry"/>
                </mxCell>
                <mxCell id="14" value="requeue job" style="edgeStyle=none;html=1;exitX=0.5;exitY=0;exitDx=0;exitDy=0;" parent="1" source="5" target="2" edge="1">
                    <mxGeometry relative="1" as="geometry">
                        <Array as="points">
                            <mxPoint x="528" y="280"/>
                            <mxPoint x="128" y="280"/>
                        </Array>
                    </mxGeometry>
                </mxCell>
                <mxCell id="12" value="create case with service API, tag instances as defect" style="whiteSpace=wrap;html=1;rounded=1;fillColor=#6a00ff;fontColor=#ffffff;strokeColor=#FFFFFF;" parent="1" vertex="1">
                    <mxGeometry x="68" y="180" width="120" height="60" as="geometry"/>
                </mxCell>
                <mxCell id="15" value="Run main workload" style="whiteSpace=wrap;html=1;rounded=1;fillColor=#008a00;fontColor=#ffffff;strokeColor=#FFFFFF;" parent="1" vertex="1">
                    <mxGeometry x="629" y="340" width="120" height="60" as="geometry"/>
                </mxCell>
                <mxCell id="17" value="PROLOG&lt;br&gt;root" style="rounded=1;whiteSpace=wrap;html=1;fillColor=#1ba1e2;fontColor=#ffffff;strokeColor=#FFFFFF;" parent="1" vertex="1">
                    <mxGeometry x="367" y="480" width="81" height="40" as="geometry"/>
                </mxCell>
                <mxCell id="18" value="DEBUG JOB&lt;br&gt;root" style="rounded=1;whiteSpace=wrap;html=1;fillColor=#6a00ff;fontColor=#ffffff;strokeColor=#FFFFFF;" parent="1" vertex="1">
                    <mxGeometry x="468" y="480" width="91" height="40" as="geometry"/>
                </mxCell>
                <mxCell id="19" value="MAIN JOB&lt;br&gt;user" style="rounded=1;whiteSpace=wrap;html=1;fillColor=#008a00;fontColor=#ffffff;strokeColor=#FFFFFF;" parent="1" vertex="1">
                    <mxGeometry x="268" y="480" width="80" height="40" as="geometry"/>
                </mxCell>
                <mxCell id="26" value="YES" style="edgeStyle=none;html=1;" parent="1" source="22" target="3" edge="1">
                    <mxGeometry x="-0.2667" y="20" relative="1" as="geometry">
                        <mxPoint as="offset"/>
                    </mxGeometry>
                </mxCell>
                <mxCell id="27" style="edgeStyle=none;html=1;exitX=0.5;exitY=1;exitDx=0;exitDy=0;entryX=0.5;entryY=1;entryDx=0;entryDy=0;" parent="1" source="22" target="15" edge="1">
                    <mxGeometry relative="1" as="geometry">
                        <Array as="points">
                            <mxPoint x="269" y="440"/>
                            <mxPoint x="689" y="440"/>
                        </Array>
                    </mxGeometry>
                </mxCell>
                <mxCell id="28" value="NO" style="edgeLabel;html=1;align=center;verticalAlign=middle;resizable=0;points=[];" parent="27" vertex="1" connectable="0">
                    <mxGeometry x="-0.7213" relative="1" as="geometry">
                        <mxPoint x="13" y="-10" as="offset"/>
                    </mxGeometry>
                </mxCell>
                <mxCell id="22" value="8 GPUs ?" style="rhombus;whiteSpace=wrap;html=1;rounded=1;fillColor=#1ba1e2;fontColor=#ffffff;strokeColor=#FFFFFF;" parent="1" vertex="1">
                    <mxGeometry x="229" y="330" width="80" height="80" as="geometry"/>
                </mxCell>
                <mxCell id="62" style="edgeStyle=none;html=1;exitX=0.5;exitY=0;exitDx=0;exitDy=0;fontColor=#FFFFFF;" parent="1" source="5" target="40" edge="1">
                    <mxGeometry relative="1" as="geometry"/>
                </mxCell>
                <mxCell id="63" value="add / update" style="edgeLabel;html=1;align=center;verticalAlign=middle;resizable=0;points=[];fontColor=#FFFFFF;" parent="62" vertex="1" connectable="0">
                    <mxGeometry x="0.6234" y="-1" relative="1" as="geometry">
                        <mxPoint x="1" as="offset"/>
                    </mxGeometry>
                </mxCell>
                <mxCell id="5" value="failing&amp;nbsp;&lt;br&gt;nodes&lt;br&gt;?" style="rhombus;whiteSpace=wrap;html=1;rounded=1;fillColor=#1ba1e2;fontColor=#ffffff;strokeColor=#FFFFFF;" parent="1" vertex="1">
                    <mxGeometry x="488" y="330" width="80" height="80" as="geometry"/>
                </mxCell>
                <mxCell id="60" style="edgeStyle=none;html=1;entryX=0;entryY=0.5;entryDx=0;entryDy=0;fontColor=#000000;" parent="1" source="31" target="2" edge="1">
                    <mxGeometry relative="1" as="geometry">
                        <Array as="points">
                            <mxPoint x="528" y="40"/>
                            <mxPoint x="29" y="40"/>
                            <mxPoint x="29" y="370"/>
                        </Array>
                    </mxGeometry>
                </mxCell>
                <mxCell id="61" value="&lt;font color=&quot;#ffffff&quot;&gt;--exclude bad_hostnames&lt;/font&gt;" style="edgeLabel;html=1;align=center;verticalAlign=middle;resizable=0;points=[];fontColor=#000000;" parent="60" vertex="1" connectable="0">
                    <mxGeometry x="-0.207" relative="1" as="geometry">
                        <mxPoint as="offset"/>
                    </mxGeometry>
                </mxCell>
                <mxCell id="31" value="HEALTH" style="shape=table;startSize=30;container=1;collapsible=0;childLayout=tableLayout;fontStyle=1;align=center;pointerEvents=1;strokeColor=#FFFFFF;fillColor=#FFFFFF;fontColor=#000000;" parent="1" vertex="1">
                    <mxGeometry x="478" y="63.5" width="100" height="70" as="geometry"/>
                </mxCell>
                <mxCell id="32" value="" style="shape=partialRectangle;html=1;whiteSpace=wrap;collapsible=0;dropTarget=0;pointerEvents=0;fillColor=none;top=0;left=0;bottom=0;right=0;points=[[0,0.5],[1,0.5]];portConstraint=eastwest;strokeColor=#FFFFFF;" parent="31" vertex="1">
                    <mxGeometry y="30" width="100" height="13" as="geometry"/>
                </mxCell>
                <mxCell id="33" value="" style="shape=partialRectangle;html=1;whiteSpace=wrap;connectable=0;fillColor=none;top=0;left=0;bottom=0;right=0;overflow=hidden;pointerEvents=1;strokeColor=#FFFFFF;" parent="32" vertex="1">
                    <mxGeometry width="33" height="13" as="geometry">
                        <mxRectangle width="33" height="13" as="alternateBounds"/>
                    </mxGeometry>
                </mxCell>
                <mxCell id="34" value="" style="shape=partialRectangle;html=1;whiteSpace=wrap;connectable=0;fillColor=none;top=0;left=0;bottom=0;right=0;overflow=hidden;pointerEvents=1;strokeColor=#FFFFFF;" parent="32" vertex="1">
                    <mxGeometry x="33" width="34" height="13" as="geometry">
                        <mxRectangle width="34" height="13" as="alternateBounds"/>
                    </mxGeometry>
                </mxCell>
                <mxCell id="35" value="" style="shape=partialRectangle;html=1;whiteSpace=wrap;connectable=0;fillColor=none;top=0;left=0;bottom=0;right=0;overflow=hidden;pointerEvents=1;strokeColor=#FFFFFF;" parent="32" vertex="1">
                    <mxGeometry x="67" width="33" height="13" as="geometry">
                        <mxRectangle width="33" height="13" as="alternateBounds"/>
                    </mxGeometry>
                </mxCell>
                <mxCell id="36" value="" style="shape=partialRectangle;html=1;whiteSpace=wrap;collapsible=0;dropTarget=0;pointerEvents=0;fillColor=none;top=0;left=0;bottom=0;right=0;points=[[0,0.5],[1,0.5]];portConstraint=eastwest;strokeColor=#FFFFFF;" parent="31" vertex="1">
                    <mxGeometry y="43" width="100" height="14" as="geometry"/>
                </mxCell>
                <mxCell id="37" value="" style="shape=partialRectangle;html=1;whiteSpace=wrap;connectable=0;fillColor=none;top=0;left=0;bottom=0;right=0;overflow=hidden;pointerEvents=1;strokeColor=#FFFFFF;" parent="36" vertex="1">
                    <mxGeometry width="33" height="14" as="geometry">
                        <mxRectangle width="33" height="14" as="alternateBounds"/>
                    </mxGeometry>
                </mxCell>
                <mxCell id="38" value="" style="shape=partialRectangle;html=1;whiteSpace=wrap;connectable=0;fillColor=none;top=0;left=0;bottom=0;right=0;overflow=hidden;pointerEvents=1;strokeColor=#FFFFFF;" parent="36" vertex="1">
                    <mxGeometry x="33" width="34" height="14" as="geometry">
                        <mxRectangle width="34" height="14" as="alternateBounds"/>
                    </mxGeometry>
                </mxCell>
                <mxCell id="39" value="" style="shape=partialRectangle;html=1;whiteSpace=wrap;connectable=0;fillColor=none;top=0;left=0;bottom=0;right=0;overflow=hidden;pointerEvents=1;strokeColor=#FFFFFF;" parent="36" vertex="1">
                    <mxGeometry x="67" width="33" height="14" as="geometry">
                        <mxRectangle width="33" height="14" as="alternateBounds"/>
                    </mxGeometry>
                </mxCell>
                <mxCell id="40" value="" style="shape=partialRectangle;html=1;whiteSpace=wrap;collapsible=0;dropTarget=0;pointerEvents=0;fillColor=none;top=0;left=0;bottom=0;right=0;points=[[0,0.5],[1,0.5]];portConstraint=eastwest;strokeColor=#FFFFFF;" parent="31" vertex="1">
                    <mxGeometry y="57" width="100" height="13" as="geometry"/>
                </mxCell>
                <mxCell id="41" value="" style="shape=partialRectangle;html=1;whiteSpace=wrap;connectable=0;fillColor=none;top=0;left=0;bottom=0;right=0;overflow=hidden;pointerEvents=1;strokeColor=#FFFFFF;" parent="40" vertex="1">
                    <mxGeometry width="33" height="13" as="geometry">
                        <mxRectangle width="33" height="13" as="alternateBounds"/>
                    </mxGeometry>
                </mxCell>
                <mxCell id="42" value="" style="shape=partialRectangle;html=1;whiteSpace=wrap;connectable=0;fillColor=none;top=0;left=0;bottom=0;right=0;overflow=hidden;pointerEvents=1;strokeColor=#FFFFFF;" parent="40" vertex="1">
                    <mxGeometry x="33" width="34" height="13" as="geometry">
                        <mxRectangle width="34" height="13" as="alternateBounds"/>
                    </mxGeometry>
                </mxCell>
                <mxCell id="43" value="" style="shape=partialRectangle;html=1;whiteSpace=wrap;connectable=0;fillColor=none;top=0;left=0;bottom=0;right=0;overflow=hidden;pointerEvents=1;strokeColor=#FFFFFF;" parent="40" vertex="1">
                    <mxGeometry x="67" width="33" height="13" as="geometry">
                        <mxRectangle width="33" height="13" as="alternateBounds"/>
                    </mxGeometry>
                </mxCell>
                <mxCell id="44" value="HEALTHLOG" style="shape=table;startSize=30;container=1;collapsible=0;childLayout=tableLayout;fontStyle=1;align=center;pointerEvents=1;strokeColor=#FFFFFF;fillColor=#FFFFFF;fontColor=#000000;" parent="1" vertex="1">
                    <mxGeometry x="629" y="63.5" width="100" height="70" as="geometry"/>
                </mxCell>
                <mxCell id="45" value="" style="shape=partialRectangle;html=1;whiteSpace=wrap;collapsible=0;dropTarget=0;pointerEvents=0;fillColor=none;top=0;left=0;bottom=0;right=0;points=[[0,0.5],[1,0.5]];portConstraint=eastwest;strokeColor=#FFFFFF;" parent="44" vertex="1">
                    <mxGeometry y="30" width="100" height="13" as="geometry"/>
                </mxCell>
                <mxCell id="46" value="" style="shape=partialRectangle;html=1;whiteSpace=wrap;connectable=0;fillColor=none;top=0;left=0;bottom=0;right=0;overflow=hidden;pointerEvents=1;strokeColor=#FFFFFF;" parent="45" vertex="1">
                    <mxGeometry width="33" height="13" as="geometry">
                        <mxRectangle width="33" height="13" as="alternateBounds"/>
                    </mxGeometry>
                </mxCell>
                <mxCell id="47" value="" style="shape=partialRectangle;html=1;whiteSpace=wrap;connectable=0;fillColor=none;top=0;left=0;bottom=0;right=0;overflow=hidden;pointerEvents=1;strokeColor=#FFFFFF;" parent="45" vertex="1">
                    <mxGeometry x="33" width="34" height="13" as="geometry">
                        <mxRectangle width="34" height="13" as="alternateBounds"/>
                    </mxGeometry>
                </mxCell>
                <mxCell id="48" value="" style="shape=partialRectangle;html=1;whiteSpace=wrap;connectable=0;fillColor=none;top=0;left=0;bottom=0;right=0;overflow=hidden;pointerEvents=1;strokeColor=#FFFFFF;" parent="45" vertex="1">
                    <mxGeometry x="67" width="33" height="13" as="geometry">
                        <mxRectangle width="33" height="13" as="alternateBounds"/>
                    </mxGeometry>
                </mxCell>
                <mxCell id="49" value="" style="shape=partialRectangle;html=1;whiteSpace=wrap;collapsible=0;dropTarget=0;pointerEvents=0;fillColor=none;top=0;left=0;bottom=0;right=0;points=[[0,0.5],[1,0.5]];portConstraint=eastwest;strokeColor=#FFFFFF;" parent="44" vertex="1">
                    <mxGeometry y="43" width="100" height="14" as="geometry"/>
                </mxCell>
                <mxCell id="50" value="" style="shape=partialRectangle;html=1;whiteSpace=wrap;connectable=0;fillColor=none;top=0;left=0;bottom=0;right=0;overflow=hidden;pointerEvents=1;strokeColor=#FFFFFF;" parent="49" vertex="1">
                    <mxGeometry width="33" height="14" as="geometry">
                        <mxRectangle width="33" height="14" as="alternateBounds"/>
                    </mxGeometry>
                </mxCell>
                <mxCell id="51" value="" style="shape=partialRectangle;html=1;whiteSpace=wrap;connectable=0;fillColor=none;top=0;left=0;bottom=0;right=0;overflow=hidden;pointerEvents=1;strokeColor=#FFFFFF;" parent="49" vertex="1">
                    <mxGeometry x="33" width="34" height="14" as="geometry">
                        <mxRectangle width="34" height="14" as="alternateBounds"/>
                    </mxGeometry>
                </mxCell>
                <mxCell id="52" value="" style="shape=partialRectangle;html=1;whiteSpace=wrap;connectable=0;fillColor=none;top=0;left=0;bottom=0;right=0;overflow=hidden;pointerEvents=1;strokeColor=#FFFFFF;" parent="49" vertex="1">
                    <mxGeometry x="67" width="33" height="14" as="geometry">
                        <mxRectangle width="33" height="14" as="alternateBounds"/>
                    </mxGeometry>
                </mxCell>
                <mxCell id="53" value="" style="shape=partialRectangle;html=1;whiteSpace=wrap;collapsible=0;dropTarget=0;pointerEvents=0;fillColor=none;top=0;left=0;bottom=0;right=0;points=[[0,0.5],[1,0.5]];portConstraint=eastwest;strokeColor=#FFFFFF;" parent="44" vertex="1">
                    <mxGeometry y="57" width="100" height="13" as="geometry"/>
                </mxCell>
                <mxCell id="54" value="" style="shape=partialRectangle;html=1;whiteSpace=wrap;connectable=0;fillColor=none;top=0;left=0;bottom=0;right=0;overflow=hidden;pointerEvents=1;strokeColor=#FFFFFF;" parent="53" vertex="1">
                    <mxGeometry width="33" height="13" as="geometry">
                        <mxRectangle width="33" height="13" as="alternateBounds"/>
                    </mxGeometry>
                </mxCell>
                <mxCell id="55" value="" style="shape=partialRectangle;html=1;whiteSpace=wrap;connectable=0;fillColor=none;top=0;left=0;bottom=0;right=0;overflow=hidden;pointerEvents=1;strokeColor=#FFFFFF;" parent="53" vertex="1">
                    <mxGeometry x="33" width="34" height="13" as="geometry">
                        <mxRectangle width="34" height="13" as="alternateBounds"/>
                    </mxGeometry>
                </mxCell>
                <mxCell id="56" value="" style="shape=partialRectangle;html=1;whiteSpace=wrap;connectable=0;fillColor=none;top=0;left=0;bottom=0;right=0;overflow=hidden;pointerEvents=1;strokeColor=#FFFFFF;" parent="53" vertex="1">
                    <mxGeometry x="67" width="33" height="13" as="geometry">
                        <mxRectangle width="33" height="13" as="alternateBounds"/>
                    </mxGeometry>
                </mxCell>
                <mxCell id="57" value="&lt;font color=&quot;#ffffff&quot;&gt;log&lt;/font&gt;" style="edgeStyle=none;html=1;fontColor=#000000;" parent="1" source="32" target="53" edge="1">
                    <mxGeometry relative="1" as="geometry"/>
                </mxCell>
                <mxCell id="64" value="RDS database" style="text;html=1;align=center;verticalAlign=middle;resizable=0;points=[];autosize=1;strokeColor=none;fillColor=none;" vertex="1" parent="1">
                    <mxGeometry x="559" y="40" width="90" height="20" as="geometry"/>
                </mxCell>
                <mxCell id="65" value="gpu serial number (PKI)&lt;br&gt;cluster name&lt;br&gt;hostname&lt;br&gt;gpu id&lt;br&gt;ip address&lt;br&gt;instance id&lt;br&gt;defect status (bit)&lt;br&gt;timestamp" style="text;html=1;align=left;verticalAlign=middle;resizable=0;points=[];autosize=1;strokeColor=none;fillColor=none;" vertex="1" parent="1">
                    <mxGeometry x="629" y="150" width="140" height="120" as="geometry"/>
                </mxCell>
                <mxCell id="66" value="debug.sbatch" style="text;html=1;align=center;verticalAlign=middle;resizable=0;points=[];autosize=1;strokeColor=none;fillColor=none;" vertex="1" parent="1">
                    <mxGeometry x="394" y="150" width="90" height="20" as="geometry"/>
                </mxCell>
                <mxCell id="67" value="report.sh" style="text;html=1;align=center;verticalAlign=middle;resizable=0;points=[];autosize=1;strokeColor=none;fillColor=none;" vertex="1" parent="1">
                    <mxGeometry x="249" y="150" width="60" height="20" as="geometry"/>
                </mxCell>
                <mxCell id="68" value="report.sh" style="text;html=1;align=center;verticalAlign=middle;resizable=0;points=[];autosize=1;strokeColor=none;fillColor=none;" vertex="1" parent="1">
                    <mxGeometry x="100" y="150" width="60" height="20" as="geometry"/>
                </mxCell>
                <mxCell id="69" value="prolog.sh" style="text;html=1;align=center;verticalAlign=middle;resizable=0;points=[];autosize=1;strokeColor=none;fillColor=none;" vertex="1" parent="1">
                    <mxGeometry x="360" y="310" width="60" height="20" as="geometry"/>
                </mxCell>
                <mxCell id="70" value="sbatch_wrapper.sh" style="text;html=1;align=center;verticalAlign=middle;resizable=0;points=[];autosize=1;strokeColor=none;fillColor=none;" vertex="1" parent="1">
                    <mxGeometry x="70" y="410" width="120" height="20" as="geometry"/>
                </mxCell>
            </root>
        </mxGraphModel>
    </diagram>
</mxfile>